# xmcd
#
# Track frame offsets:
#  150
#  11444
#  24843
#  35822
#  49858
#  62620
#  75531
#  88773
#  99412
#  110061
#  121808
#  133850
#  145914
#  156887
#  167492
#  179309
#  193003
#  208855
#
# Disc length: 2949 seconds
#
# Revision: 0
# Processed by: cddbd v1.5.1PL2 Copyright (c) Steve Scherf et al.
# Submitted via: Collectorz.com_Music_Collector 6.9
#
DISCID=f20b8312
DTITLE=Koos Speenhoff - Amusement Klassieken 2
DYEAR=1900
DGENRE=Cabaret
TTITLE0=De schutters
TTITLE1=Brief van een moeder aan haar zoon
TTITLE2=Speenhoff in de hel
TTITLE3=De moderne muziek
TTITLE4=Ome Hein is dood
TTITLE5=De Mengelberg concerten
TTITLE6=De wijsgeer
TTITLE7=De bedelaar met duizend gulden
TTITLE8=De juffrouw van de retirade
TTITLE9=Bruggewachter
TTITLE10=Dorussie uit het armhuis
TTITLE11=De twee aardige mensen
TTITLE12=De hoge hoed
TTITLE13=De twee verlaten stakkers
TTITLE14=Spotlied op de jaloerse vrouwen
TTITLE15=De stille zwabber
TTITLE16=Het meisje dat men nooit vergeet
TTITLE17=De vijf equipages van een schooier
EXTD=
EXTT0=
EXTT1=
EXTT2=
EXTT3=
EXTT4=
EXTT5=
EXTT6=
EXTT7=
EXTT8=
EXTT9=
EXTT10=
EXTT11=
EXTT12=
EXTT13=
EXTT14=
EXTT15=
EXTT16=
EXTT17=
PLAYORDER=
